<?xml version="1.0" encoding="utf-8"?>
<!-- Generator: Adobe Illustrator 19.2.1, SVG Export Plug-In . SVG Version: 6.00 Build 0)  -->
<svg version="1.1" id="Layer_1" xmlns="http://www.w3.org/2000/svg" xmlns:xlink="http://www.w3.org/1999/xlink" x="0px" y="0px"
	 width="132.9px" height="29.2px" viewBox="0 0 132.9 29.2" style="enable-background:new 0 0 132.9 29.2;" xml:space="preserve">
<style type="text/css">
	.st0{fill:#FFFFFF;}
</style>
<g>
	<g>
		<path class="st0" d="M8.6,8.7v2H3.8V13h4.6v2H3.8v4.1H1.5V8.7H8.6z"/>
		<path class="st0" d="M28.3,12.1c0,1.7-0.7,2.7-2,3.2l2.6,3.7h-2.9l-2.3-3.3h-1.6v3.3h-2.3V8.7h3.9c1.6,0,2.8,0.3,3.5,0.8
			C27.9,10,28.3,10.9,28.3,12.1z M25.5,13.4c0.3-0.3,0.4-0.7,0.4-1.2c0-0.6-0.1-0.9-0.4-1.2c-0.3-0.2-0.8-0.3-1.6-0.3h-1.7v3.1h1.7
			C24.7,13.7,25.2,13.6,25.5,13.4z"/>
		<path class="st0" d="M71,17c1.1,0,2.1-0.5,2.8-1.4l1.5,1.5c-1.2,1.3-2.6,2-4.2,2c-1.6,0-2.9-0.5-4-1.5c-1-1-1.6-2.3-1.6-3.8
			c0-1.5,0.5-2.8,1.6-3.9c1.1-1,2.4-1.5,3.9-1.5c1.7,0,3.1,0.7,4.3,2L73.9,12c-0.7-0.9-1.6-1.4-2.7-1.4c-0.9,0-1.6,0.3-2.2,0.9
			c-0.6,0.6-0.9,1.3-0.9,2.3s0.3,1.7,0.9,2.3C69.5,16.7,70.2,17,71,17z"/>
		<path class="st0" d="M90.8,10.7v8.4h-2.3v-8.4h-2.9v-2h8.2v2H90.8z"/>
		<path class="st0" d="M111.3,19.1l-1-2.2H106l-1,2.2h-2.5L107,8.7h2.2l4.5,10.4H111.3z M108.2,11.8l-1.3,3h2.6L108.2,11.8z"/>
		<path class="st0" d="M124.2,19.1V8.7h2.3V17h4.4v2.1H124.2z"/>
	</g>
	<path class="st0" d="M47,27L34,14L47,1l13,13L47,27z M35.7,14L47,25.3L58.3,14L47,2.7L35.7,14z"/>
	<polygon class="st0" points="47,16.7 42.2,16.7 44.6,12.6 47,8.4 49.4,12.6 51.8,16.7 	"/>
</g>
</svg>
